<svg xmlns="http://www.w3.org/2000/svg" viewBox="0 0 197.7 40.7">
  <style type="text/css">
    
	.st0{fill:#E74610;}
	.st1{fill:#FFFFFF;}
	.black-or-white{display: none;}

  </style>
  <rect x="-0.1" y="-0.3" class="st0" width="74.1" height="41"/>
    <path class="st1" d="M19.3 9.9h8.2c3.7 0 6.5 2.3 6.5 5.6 0 1.9-1 3.5-2.5 4.4 1.7 0.9 2.8 2.5 2.8 4.8 0 3.5-2.8 5.8-6.5 5.8h-8.4V9.9zM27.6 18.6c1.7 0 3.4-0.8 3.4-3s-1.7-3-3.4-3h-5.3v5.9H27.6zM27.9 27.6c1.7 0 3.4-1.1 3.4-3.1 0-2.3-1.7-3.1-3.4-3.1h-5.6v6.2H27.9z"/>
    <path class="st1" d="M47.2 9.3c3.1 0 6.2 1.4 8.2 3.9l-2 2c-1.4-2-3.4-3.1-6.1-3.1 -4.8 0-7.7 3.5-7.7 8.1 0 4.5 2.9 8.1 7.9 8.1 2.7 0 4.6-1.2 6.1-3.1l2 2c-2 2.5-5.1 3.9-8.2 3.9 -6.2 0-10.7-4.8-10.7-10.8C36.6 14.1 41.1 9.3 47.2 9.3z"/>
  
  
  
  
    <path class="black-or-white" d="M89.8 8.9h6.7c3 0 5.3 1.8 5.3 4.6 0 1.5-0.8 2.8-2 3.6 1.4 0.7 2.3 2 2.3 3.9 0 2.9-2.3 4.7-5.3 4.7h-6.9V8.9zM96.6 16c1.4 0 2.8-0.7 2.8-2.4s-1.4-2.4-2.8-2.4h-4.4V16H96.6zM96.9 23.3c1.4 0 2.8-0.9 2.8-2.5 0-1.8-1.4-2.5-2.8-2.5h-4.6v5.1H96.9z"/>
    <path class="black-or-white" d="M124.6 17.8v2.1h-20.2v-2.1H124.6z"/>
    <path class="black-or-white" d="M135.5 8.4c2.5 0 5.1 1.1 6.7 3.2l-1.6 1.6c-1.1-1.6-2.8-2.6-4.9-2.6 -3.9 0-6.3 2.9-6.3 6.6s2.4 6.6 6.4 6.6c2.2 0 3.8-0.9 4.9-2.6l1.6 1.6c-1.6 2.1-4.1 3.2-6.7 3.2 -5.1 0-8.7-3.9-8.7-8.8C126.9 12.3 130.6 8.4 135.5 8.4z"/>
    <path class="black-or-white" d="M145.7 8.9h2.4v14.5h7.7v2.3h-10.1V8.9z"/>
    <path class="black-or-white" d="M169.1 8.9h2.4v12c0 2.9-2.2 4.8-5.2 4.8h-2.1c-3 0-5.2-2-5.2-4.8v-12h2.4v12c0 1.7 1.3 2.5 2.6 2.5h2.3c1.4 0 2.6-0.8 2.6-2.5V8.9z"/>
    <path class="black-or-white" d="M176.3 8.9h6.7c3 0 5.3 1.8 5.3 4.6 0 1.5-0.8 2.8-2 3.6 1.4 0.7 2.3 2 2.3 3.9 0 2.9-2.3 4.7-5.3 4.7h-6.9V8.9zM183.1 16c1.4 0 2.8-0.7 2.8-2.4s-1.4-2.4-2.8-2.4h-4.4V16H183.1zM183.3 23.3c1.4 0 2.8-0.9 2.8-2.5 0-1.8-1.4-2.5-2.8-2.5h-4.6v5.1H183.3z"/>
    <path class="black-or-white" d="M92 34.8l0.2-1.5h-1l-0.2 1.5h-0.5l0.2-1.5H90l0.1-0.5h0.8L91 32h-0.8l0.1-0.5h0.8l0.2-1.4h0.5l-0.2 1.4h1l0.2-1.4h0.5l-0.2 1.4h0.8L93.8 32H93l-0.1 0.9h0.8l-0.1 0.5h-0.8l-0.2 1.5H92zM92.5 32h-1l-0.1 0.9h1L92.5 32z"/>
    <path class="black-or-white" d="M95 34.8h-0.5v-5.1H95v2.6c0.3-0.4 0.8-0.5 1-0.5 0.9 0 1.4 0.8 1.4 1.5 0 0.8-0.5 1.5-1.4 1.5 -0.5 0-0.8-0.2-1-0.5V34.8zM96.9 33.4c0-0.7-0.5-1.1-1-1.1s-1 0.4-1 1.1c0 0.6 0.4 1.1 1 1.1C96.5 34.5 96.9 34 96.9 33.4z"/>
    <path class="black-or-white" d="M98 33.4c0-0.9 0.7-1.5 1.5-1.5s1.5 0.7 1.5 1.5c0 0.9-0.7 1.5-1.5 1.5C98.6 34.9 98 34.3 98 33.4zM98.5 33.4c0 0.7 0.5 1.1 1 1.1 0.5 0 1-0.4 1-1.1 0-0.7-0.5-1.1-1-1.1S98.5 32.7 98.5 33.4z"/>
    <path class="black-or-white" d="M102.3 32.4v2.4h-0.5v-2.4h-0.3v-0.5h0.3v-1.1h0.5v1.1h0.5v0.5H102.3z"/>
    <path class="black-or-white" d="M104 32.4v2.4h-0.5v-2.4h-0.3v-0.5h0.3v-1.1h0.5v1.1h0.5v0.5H104z"/>
    <path class="black-or-white" d="M104.8 33.4c0-0.9 0.7-1.5 1.5-1.5s1.5 0.7 1.5 1.5c0 0.9-0.7 1.5-1.5 1.5S104.8 34.3 104.8 33.4zM105.3 33.4c0 0.7 0.5 1.1 1 1.1 0.5 0 1-0.4 1-1.1 0-0.7-0.5-1.1-1-1.1S105.3 32.7 105.3 33.4z"/>
    <path class="black-or-white" d="M108.6 31.9h0.5v0.3c0.2-0.2 0.4-0.4 0.7-0.4 0.5 0 0.7 0.4 0.8 0.5 0.3-0.4 0.7-0.5 0.9-0.5 0.9 0 0.9 0.7 0.9 1.1v1.8H112v-1.8c0-0.3 0-0.8-0.5-0.8 -0.6 0-0.6 0.6-0.6 0.9v1.6h-0.5v-1.7c0-0.2 0-0.8-0.5-0.8 -0.6 0-0.6 0.6-0.6 0.9v1.6h-0.5V31.9z"/>
    <path class="black-or-white" d="M114.6 32.6c-0.1-0.2-0.2-0.3-0.4-0.3 -0.2 0-0.3 0.1-0.3 0.3 0 0.2 0.1 0.3 0.5 0.4 0.4 0.2 0.6 0.3 0.7 0.4 0.1 0.2 0.2 0.3 0.2 0.5 0 0.6-0.4 1-1 1 -0.1 0-0.8 0-1-0.7l0.4-0.2c0.1 0.2 0.2 0.5 0.6 0.5 0.3 0 0.5-0.2 0.5-0.5 0-0.3-0.2-0.4-0.5-0.5 -0.3-0.2-0.6-0.3-0.7-0.4 -0.1-0.1-0.1-0.3-0.1-0.4 0-0.5 0.4-0.8 0.8-0.8 0.2 0 0.6 0 0.8 0.5L114.6 32.6z"/>
    <path class="black-or-white" d="M118.5 34.1c-0.1 0.2-0.2 0.3-0.4 0.5 -0.3 0.2-0.6 0.4-1 0.4 -0.7 0-1.4-0.4-1.4-1.5 0-0.9 0.5-1.5 1.4-1.5 0.6 0 0.9 0.3 1.1 0.5 0.2 0.3 0.3 0.7 0.3 1.1h-2.3c0 0.6 0.4 1 0.9 1 0.2 0 0.4-0.1 0.6-0.2 0.1-0.1 0.2-0.3 0.3-0.4L118.5 34.1zM118 33.1c-0.1-0.5-0.4-0.8-0.9-0.8 -0.4 0-0.8 0.3-0.9 0.8H118z"/>
    <path class="black-or-white" d="M121.5 31.9h0.5v2.9h-0.5v-0.4c-0.2 0.2-0.5 0.5-1 0.5 -0.7 0-1.4-0.5-1.4-1.5 0-1 0.7-1.5 1.4-1.5 0.6 0 0.9 0.3 1 0.5V31.9zM119.6 33.4c0 0.6 0.4 1.1 1 1.1 0.6 0 1-0.5 1-1.1 0-0.7-0.5-1.1-1-1.1C120 32.3 119.6 32.7 119.6 33.4z"/>
    <path class="black-or-white" d="M122.9 31.9h0.5v0.3c0-0.1 0.3-0.4 0.7-0.4 0.2 0 0.3 0.1 0.4 0.1l-0.2 0.5c-0.1-0.1-0.2-0.1-0.3-0.1 -0.2 0-0.3 0.1-0.4 0.2 -0.1 0.1-0.2 0.3-0.2 0.8v1.5h-0.5V31.9z"/>
    <path class="black-or-white" d="M127.1 32.8c-0.3-0.3-0.7-0.4-0.9-0.4 -0.5 0-1 0.4-1 1.1 0 0.7 0.5 1.1 1 1.1 0.3 0 0.7-0.1 0.9-0.5v0.6c-0.3 0.2-0.7 0.3-0.9 0.3 -0.9 0-1.6-0.6-1.6-1.5 0-0.9 0.7-1.5 1.6-1.5 0.5 0 0.8 0.2 0.9 0.3V32.8z"/>
    <path class="black-or-white" d="M127.9 29.7h0.5v2.5c0.1-0.1 0.4-0.4 0.8-0.4 0.3 0 0.7 0.1 0.8 0.4 0.1 0.2 0.2 0.5 0.2 0.8v1.8h-0.5v-1.8c0-0.2 0-0.4-0.1-0.5 -0.1-0.1-0.3-0.2-0.5-0.2 -0.2 0-0.4 0-0.5 0.2 -0.2 0.2-0.2 0.6-0.2 0.8v1.5h-0.5V29.7z"/>
    <path class="black-or-white" d="M133.7 34.1c-0.1 0.2-0.2 0.3-0.4 0.5 -0.3 0.2-0.6 0.4-1 0.4 -0.7 0-1.4-0.4-1.4-1.5 0-0.9 0.5-1.5 1.4-1.5 0.6 0 0.9 0.3 1.1 0.5 0.2 0.3 0.3 0.7 0.3 1.1h-2.3c0 0.6 0.4 1 0.9 1 0.2 0 0.4-0.1 0.6-0.2 0.1-0.1 0.2-0.3 0.3-0.4L133.7 34.1zM133.2 33.1c-0.1-0.5-0.4-0.8-0.9-0.8 -0.4 0-0.8 0.3-0.9 0.8H133.2z"/>
    <path class="black-or-white" d="M134.5 31.9h0.5v0.3c0-0.1 0.3-0.4 0.7-0.4 0.2 0 0.3 0.1 0.4 0.1l-0.2 0.5c-0.1-0.1-0.2-0.1-0.3-0.1 -0.2 0-0.3 0.1-0.4 0.2 -0.1 0.1-0.2 0.3-0.2 0.8v1.5h-0.5V31.9z"/>
    <path class="black-or-white" d="M137.7 32.6c-0.1-0.2-0.2-0.3-0.4-0.3 -0.2 0-0.3 0.1-0.3 0.3 0 0.2 0.1 0.3 0.5 0.4 0.4 0.2 0.6 0.3 0.7 0.4 0.1 0.2 0.2 0.3 0.2 0.5 0 0.6-0.4 1-1 1 -0.1 0-0.8 0-1-0.7l0.4-0.2c0.1 0.2 0.2 0.5 0.6 0.5 0.3 0 0.5-0.2 0.5-0.5 0-0.3-0.2-0.4-0.5-0.5 -0.3-0.2-0.6-0.3-0.7-0.4 -0.1-0.1-0.1-0.3-0.1-0.4 0-0.5 0.4-0.8 0.8-0.8 0.2 0 0.6 0 0.8 0.5L137.7 32.6z"/>
    <path class="black-or-white" d="M144.3 33.1c-0.1 0.2-0.3 0.4-0.6 0.7l0.8 1h-0.6l-0.5-0.7c-0.4 0.4-1 0.7-1.5 0.7 -0.8 0-1.4-0.6-1.4-1.3 0-0.5 0.3-0.8 0.4-1 0.2-0.2 0.7-0.5 0.8-0.6 -0.3-0.4-0.5-0.7-0.5-1 0-0.5 0.3-1 1-1 0.7 0 1 0.5 1 0.9 0 0.2-0.1 0.5-0.4 0.8 -0.1 0.1-0.1 0-0.4 0.3l1 1.3c0.3-0.3 0.4-0.4 0.5-0.6L144.3 33.1zM142 32.5c-0.3 0.2-0.5 0.4-0.7 0.5s-0.3 0.3-0.3 0.7c0 0.5 0.3 0.8 0.8 0.8 0.5 0 1-0.5 1.2-0.6L142 32.5zM142.1 31.8l0.3-0.2c0.3-0.2 0.3-0.4 0.3-0.5 0-0.3-0.3-0.5-0.5-0.5 -0.3 0-0.5 0.2-0.5 0.5 0 0.2 0.1 0.3 0.2 0.5L142.1 31.8z"/>
    <path class="black-or-white" d="M148.4 34.8l0.2-1.5h-1l-0.2 1.5H147l0.2-1.5h-0.8l0.1-0.5h0.8l0.1-0.9h-0.8l0.1-0.5h0.8l0.2-1.4h0.5l-0.2 1.4h1l0.2-1.4h0.5l-0.2 1.4h0.8l-0.1 0.5h-0.8l-0.1 0.9h0.8l-0.1 0.5h-0.8l-0.2 1.5H148.4zM148.9 32h-1l-0.1 0.9h1L148.9 32z"/>
    <path class="black-or-white" d="M151.4 34.8h-0.5v-5.1h0.5v2.6c0.3-0.4 0.8-0.5 1-0.5 0.9 0 1.4 0.8 1.4 1.5 0 0.8-0.5 1.5-1.4 1.5 -0.5 0-0.8-0.2-1-0.5V34.8zM153.3 33.4c0-0.7-0.5-1.1-1-1.1 -0.5 0-1 0.4-1 1.1 0 0.6 0.4 1.1 1 1.1C152.9 34.5 153.3 34 153.3 33.4z"/>
    <path class="black-or-white" d="M154.8 30.5c0.2 0 0.4 0.2 0.4 0.4s-0.2 0.4-0.4 0.4 -0.4-0.2-0.4-0.4S154.6 30.5 154.8 30.5zM155.1 31.9v2.9h-0.5v-2.9H155.1z"/>
    <path class="black-or-white" d="M156.5 29.7v5.1H156v-5.1H156.5z"/>
    <path class="black-or-white" d="M158 29.7v5.1h-0.5v-5.1H158z"/>
    <path class="black-or-white" d="M159.2 30.5c0.2 0 0.4 0.2 0.4 0.4s-0.2 0.4-0.4 0.4 -0.4-0.2-0.4-0.4S159 30.5 159.2 30.5zM159.4 31.9v2.9h-0.5v-2.9H159.4z"/>
    <path class="black-or-white" d="M160.2 33.4c0-0.9 0.7-1.5 1.5-1.5s1.5 0.7 1.5 1.5c0 0.9-0.7 1.5-1.5 1.5S160.2 34.3 160.2 33.4zM160.7 33.4c0 0.7 0.5 1.1 1 1.1 0.5 0 1-0.4 1-1.1 0-0.7-0.5-1.1-1-1.1S160.7 32.7 160.7 33.4z"/>
    <path class="black-or-white" d="M164 31.9h0.5v0.3c0.1-0.1 0.4-0.4 0.8-0.4 0.3 0 0.7 0.1 0.8 0.4 0.1 0.2 0.2 0.5 0.2 0.8v1.8h-0.5v-1.8c0-0.2 0-0.4-0.1-0.5 -0.1-0.1-0.3-0.2-0.5-0.2 -0.2 0-0.4 0-0.5 0.2 -0.2 0.2-0.2 0.6-0.2 0.8v1.5H164V31.9z"/>
    <path class="black-or-white" d="M167.3 31.9h0.5v0.3c0.2-0.2 0.4-0.4 0.7-0.4 0.5 0 0.7 0.4 0.8 0.5 0.3-0.4 0.7-0.5 0.9-0.5 0.9 0 0.9 0.7 0.9 1.1v1.8h-0.5v-1.8c0-0.3 0-0.8-0.5-0.8 -0.6 0-0.6 0.6-0.6 0.9v1.6H169v-1.7c0-0.2 0-0.8-0.5-0.8 -0.6 0-0.6 0.6-0.6 0.9v1.6h-0.5V31.9z"/>
    <path class="black-or-white" d="M174.3 31.9h0.5v2.9h-0.5v-0.4c-0.2 0.2-0.5 0.5-1 0.5 -0.7 0-1.4-0.5-1.4-1.5 0-1 0.7-1.5 1.4-1.5 0.6 0 0.9 0.3 1 0.5V31.9zM172.5 33.4c0 0.6 0.4 1.1 1 1.1 0.6 0 1-0.5 1-1.1 0-0.7-0.5-1.1-1-1.1C172.9 32.3 172.5 32.7 172.5 33.4z"/>
    <path class="black-or-white" d="M176.3 29.7V33l1.1-1.1h0.7l-1.2 1.2 1.5 1.7h-0.7l-1.2-1.3 -0.1 0.1v1.2h-0.5v-5.1H176.3z"/>
    <path class="black-or-white" d="M181.3 34.1c-0.1 0.2-0.2 0.3-0.4 0.5 -0.3 0.2-0.6 0.4-1 0.4 -0.7 0-1.4-0.4-1.4-1.5 0-0.9 0.5-1.5 1.4-1.5 0.6 0 0.9 0.3 1.1 0.5 0.2 0.3 0.3 0.7 0.3 1.1H179c0 0.6 0.4 1 0.9 1 0.2 0 0.4-0.1 0.6-0.2 0.1-0.1 0.2-0.3 0.3-0.4L181.3 34.1zM180.8 33.1c-0.1-0.5-0.4-0.8-0.9-0.8 -0.4 0-0.8 0.3-0.9 0.8H180.8z"/>
    <path class="black-or-white" d="M182.1 31.9h0.5v0.3c0-0.1 0.3-0.4 0.7-0.4 0.2 0 0.3 0.1 0.4 0.1l-0.2 0.5c-0.1-0.1-0.2-0.1-0.3-0.1 -0.2 0-0.3 0.1-0.4 0.2 -0.1 0.1-0.2 0.3-0.2 0.8v1.5h-0.5V31.9z"/>
    <path class="black-or-white" d="M185.2 32.6c-0.1-0.2-0.2-0.3-0.4-0.3 -0.2 0-0.3 0.1-0.3 0.3 0 0.2 0.1 0.3 0.5 0.4 0.4 0.2 0.6 0.3 0.7 0.4 0.1 0.2 0.2 0.3 0.2 0.5 0 0.6-0.4 1-1 1 -0.1 0-0.8 0-1-0.7l0.4-0.2c0.1 0.2 0.2 0.5 0.6 0.5 0.3 0 0.5-0.2 0.5-0.5 0-0.3-0.2-0.4-0.5-0.5 -0.3-0.2-0.6-0.3-0.7-0.4 -0.1-0.1-0.1-0.3-0.1-0.4 0-0.5 0.4-0.8 0.8-0.8 0.2 0 0.6 0 0.8 0.5L185.2 32.6z"/>
    <path class="black-or-white" d="M188.8 32.8c-0.3-0.3-0.7-0.4-0.9-0.4 -0.5 0-1 0.4-1 1.1 0 0.7 0.5 1.1 1 1.1 0.3 0 0.7-0.1 0.9-0.5v0.6c-0.3 0.2-0.7 0.3-0.9 0.3 -0.9 0-1.6-0.6-1.6-1.5 0-0.9 0.7-1.5 1.6-1.5 0.5 0 0.8 0.2 0.9 0.3V32.8z"/>
    <path class="black-or-white" d="M190.1 29.7v5.1h-0.5v-5.1H190.1z"/>
    <path class="black-or-white" d="M191.5 33.6c0 0.2 0 0.4 0.1 0.6 0.1 0.1 0.2 0.2 0.5 0.2s0.4-0.1 0.5-0.2c0.1-0.2 0.1-0.4 0.1-0.6v-1.7h0.5v1.8c0 0.4 0 0.6-0.3 0.9 -0.3 0.3-0.6 0.4-0.9 0.4s-0.6-0.1-0.9-0.4c-0.2-0.3-0.3-0.5-0.3-0.9v-1.8h0.5V33.6z"/>
    <path class="black-or-white" d="M194.8 34.8h-0.5v-5.1h0.5v2.6c0.3-0.4 0.8-0.5 1-0.5 0.9 0 1.4 0.8 1.4 1.5 0 0.8-0.5 1.5-1.4 1.5 -0.5 0-0.8-0.2-1-0.5V34.8zM196.7 33.4c0-0.7-0.5-1.1-1-1.1 -0.5 0-1 0.4-1 1.1 0 0.6 0.4 1.1 1 1.1C196.3 34.5 196.7 34 196.7 33.4z"/>
</svg>
